<?xml version="1.0" encoding="utf-8"?>
<!-- Generator: Adobe Illustrator 28.1.0, SVG Export Plug-In . SVG Version: 6.00 Build 0)  -->
<svg version="1.1" id="Layer_1" xmlns="http://www.w3.org/2000/svg" xmlns:xlink="http://www.w3.org/1999/xlink" x="0px" y="0px"
	 viewBox="0 0 2141.3 360" style="enable-background:new 0 0 2141.3 360;" xml:space="preserve">
<style type="text/css">
	.st0{fill:#121212;}
</style>
<g>
	<path class="st0" d="M96.8,160.9H52.5v-3c13.3-1.1,13.6-1.1,13.6-14.9V60.4c0-13.8-0.3-13.8-13.6-14.9v-3h44.2
		c22.1,0,35.8,11.8,35.8,31c0,21.9-15.8,36.3-42.4,36.3h-8.5V143c0,13.8,0.3,13.8,15.2,14.9V160.9z M87.5,105.6
		c18.4,0,28.3-7.7,28.3-27.5c0-15.7-7.2-32-24.2-32c-9.8,0-10.1,0.6-10.1,13.3v46.2H87.5z"/>
	<path class="st0" d="M180.5,160.9h-45v-3c13-1,13.4-1.3,13.4-18.1V98.7c0-10.4-3.8-11.5-15-11.5v-3c12.5,0,19.8-3.7,26.9-11.2
		l2.9,0.8v13.8c8-10.6,14.6-14.6,22.1-14.6c7,0,12,3.4,12,8.8c0,4.3-3,8.5-7.8,8.5c-6.7,0-6.4-8.3-12.3-8.3
		c-7,0-13.9,10.1-13.9,31.4v26.6c0,16.8,0.6,17,16.8,18.1V160.9z"/>
	<path class="st0" d="M275.5,115.5c0,28.3-14.9,47-37.3,47c-23.2,0-35.2-16.2-35.2-42.4c0-28.5,14.6-47.2,37.3-47.2
		C263.1,72.9,275.5,89.1,275.5,115.5z M259.2,123.3c0-23.7-6.4-46.2-22.1-46.2c-10.7,0-17.3,10.4-17.3,34.7s6.1,46.6,21.1,46.6
		C251.2,158.4,259.2,148,259.2,123.3z"/>
	<path class="st0" d="M341,160.9V146c-7.2,10.2-14.9,16.5-25,16.5c-16.3,0-29-16-29-42.6c0-29.3,17.4-47,36.6-47
		c6.7,0,13.3,2.1,17.3,4.5v-20c0-10.4-3.8-11.5-15-11.5v-3c12.5,0,19.8-3.7,28.5-11.2l1.3,0.8v107.4c0,16.8,0.6,17,12,18.1v3H341z
		 M341,132.3V100c0-16.3-9.9-21.9-18.1-21.9c-12.3,0-20,12.6-20,40c0,24.6,7,37.1,17.9,37.1C329.3,155.2,337.5,147.6,341,132.3z"/>
	<path class="st0" d="M429.8,160.9v-12.3c-13.6,9.9-19,13.9-28,13.9c-13.1,0-18.7-8.8-18.7-20.6V98.7c0-10.4-3.8-11.5-15-11.5v-3
		c12.5,0,19.8-3.7,28.5-11.2l1.3,0.8v60.6c0,14.4,7.4,19.2,14.2,19.2c8.3,0,17.8-8.6,17.8-15.5V98.7c0-10.4-3.8-11.5-15-11.5v-3
		c12.5,0,19.8-3.7,28.5-11.2l1.3,0.8v66.1c0,16.8,0.6,17,13.6,18.1v3H429.8z"/>
	<path class="st0" d="M479.4,110c0,22.7,8.6,43.4,24.2,43.4c7.4,0,16-5,22.7-12l1.9,2.6c-6.9,8.3-16.5,18.6-31.5,18.6
		c-18.1,0-33-14.7-33-42.7c0-26.6,12.5-46.9,39.4-46.9c15,0,21.9,6.1,21.9,12c0,4.3-3,9-8.5,9c-10.4,0-7.2-16.3-19.5-16.3
		C485.6,77.6,479.4,91.3,479.4,110z"/>
	<path class="st0" d="M577.1,153.1c-4.3,5.1-10.7,9.4-19.2,9.4c-10.1,0-17.4-6.2-17.4-17.4v-64l-9.8-1.6v-3.4
		c12,0,20.2-7.5,21.4-19.2h3v17l19.5,2.2v3.4l-19.5,1.9v61.4c0,9.1,3,12.6,8.8,12.6c4.8,0,8.5-2.4,11.4-5.3L577.1,153.1z"/>
	<path class="st0" d="M712.8,57.1l-40.3,105.4h-5.6v-0.2L628.7,64v75.8c0,12.6,3.4,17.1,13.6,18.1v3h-32.6v-3
		c10.2-0.8,13.4-5.3,13.4-18.1V66.4c0-14.1-5.1-19.8-13.4-20.8v-3h26.7l39.4,97.1l37.1-97.1h29v3c-13.3,1-13.4,1.1-13.4,14.9V143
		c0,13.8,0.3,13.8,13.6,14.9v3h-42.6v-3c13.3-1,13.4-1.1,13.4-14.9V57.1z"/>
	<path class="st0" d="M788.3,160.9v-9.3c-7,5.4-15.4,10.9-24.3,10.9c-12.3,0-17-9.8-17-17.9c0-9.8,6.2-14.6,23.5-20.3l17.8-5.9
		v-17.3c0-16.5-3.7-23.7-12.5-23.7c-16,0-3.8,21.9-18.2,21.9c-6.1,0-8.2-3.7-8.2-7c0-9.4,17.3-19.4,32.3-19.4
		c15,0,21.3,8.5,21.3,23.8v43c0,16.8,0.6,17,12,18.1v3H788.3z M788.3,139.8V124l-12,3.8c-11,3.7-14.2,8.6-14.2,15
		c0,5.6,2.9,11.2,9.6,11.2C777.6,154,787.1,150.2,788.3,139.8z"/>
	<path class="st0" d="M863.2,160.9h-45v-3c13-1,13.4-1.3,13.4-18.1V98.7c0-10.4-3.8-11.5-15-11.5v-3c12.5,0,19.8-3.7,26.9-11.2
		l2.9,0.8v13.8c8-10.6,14.6-14.6,22.1-14.6c7,0,12,3.4,12,8.8c0,4.3-3,8.5-7.8,8.5c-6.7,0-6.4-8.3-12.3-8.3
		c-7,0-13.9,10.1-13.9,31.4v26.6c0,16.8,0.6,17,16.8,18.1V160.9z"/>
	<path class="st0" d="M920.2,160.9H880v-3c13-1,13.4-1.3,13.4-18.1V57.4c0-10.4-3.8-11.5-15-11.5v-3c12.5,0,19.8-3.7,28.5-11.2
		l1.3,0.8v79.4l13.1-13c13.3-13.1,15.8-18.7,5.9-19.7v-3H957v3c-9.1,1.1-14.7,4.2-22.7,12.5l-10.7,11l21.8,37.1
		c8.6,14.7,10.6,18.1,17.6,18.1v3h-24.5l-25.3-47.5l-5,5v21.4c0,16.8,0.6,17,12,18.1V160.9z"/>
	<path class="st0" d="M965.9,119.8c0-26.6,13.1-46.9,34.7-46.9c12.8,0,27.5,7.5,27.5,33l-46.6,4.8c0.2,22.6,8.8,42.7,24.2,42.7
		c7.7,0,16-5,22.7-12l1.9,2.6c-6.9,8.3-17.1,18.6-31.7,18.6C981.3,162.5,965.9,148.1,965.9,119.8z M981.9,103.2h31
		c-1-23-9.6-25.6-14.4-25.6C988.8,77.6,983.2,88.1,981.9,103.2z"/>
	<path class="st0" d="M1081.6,153.1c-4.3,5.1-10.7,9.4-19.2,9.4c-10.1,0-17.4-6.2-17.4-17.4v-64l-9.8-1.6v-3.4
		c12,0,20.2-7.5,21.4-19.2h3v17l19.5,2.2v3.4l-19.5,1.9v61.4c0,9.1,3,12.6,8.8,12.6c4.8,0,8.5-2.4,11.4-5.3L1081.6,153.1z"/>
	<path class="st0" d="M1123.7,160.9h-40.2v-3c13-1,13.4-1.3,13.4-18.1V98.7c0-10.4-3.8-11.5-15-11.5v-3c12.5,0,19.8-3.7,28.5-11.2
		l1.3,0.8v66.1c0,16.8,0.6,17,12,18.1V160.9z M1092.8,50.2c0-6.1,4.8-10.9,10.9-10.9s10.7,4.8,10.7,10.9s-4.6,10.7-10.7,10.7
		S1092.8,56.3,1092.8,50.2z"/>
	<path class="st0" d="M1167.4,160.9h-40.2v-3c13-1,13.4-1.3,13.4-18.1V98.7c0-10.4-3.8-11.5-15-11.5v-3c12.5,0,19.8-3.7,28.5-11.2
		l1.3,0.8v13.1c13.6-9.9,19-13.9,28-13.9c13.1,0,18.7,8.8,18.7,27v39.8c0,16.8,0.6,17,13.6,18.1v3h-40.2v-3
		c11.4-1,11.8-1.3,11.8-18.1v-32.3c0-20.8-7.4-25.6-14.2-25.6c-8.3,0-17.8,8.6-17.8,23.5v34.4c0,16.8,0.6,17,12,18.1V160.9z"/>
	<path class="st0" d="M1252.8,191.3c-19.5,0-36-8.6-36-20.6c0-4.3,2.1-8,7.7-11.4l10.1-6.2c-6.2-2.7-10.1-6.2-10.1-11
		c0-6.9,8.2-11.7,15.2-15.2c-12-3.2-18.2-12-18.2-24.8c0-17.6,12.3-29.1,31.4-29.1h2.4l33.4,0.8v3l-16,1.4c6.6,4.5,9.9,11.7,9.9,21
		c0,17.6-12.6,29.1-31.5,29.1c-7.4,0-12.8,1.4-12.8,6.6c0,3.5,2.6,5.6,8.6,5.6h17.6c16.5,0,24.8,6.9,24.8,18.6
		C1289.3,173.7,1277.1,191.3,1252.8,191.3z M1277.8,167.2c0-6.9-5-12.2-15.8-12.2h-22.7c-5.1,1.6-8.8,7-8.8,13.9
		c0,10.1,8.3,18.4,22.6,18.4C1269,187.3,1277.8,176.4,1277.8,167.2z M1266.9,103.8c0-13.6-4.8-26.7-16.6-26.7
		c-8,0-12.8,5.9-12.8,20.3c0,13.8,3,26.7,15.2,26.7C1261,124.1,1266.9,118.2,1266.9,103.8z"/>
	<path class="st0" d="M1368.3,160.9H1324v-3c13.3-1.1,13.6-1.1,13.6-14.9V60.4c0-13.8-0.3-13.8-13.6-14.9v-3h44.2
		c22.1,0,35.8,11.8,35.8,31c0,21.9-15.8,36.3-42.4,36.3h-8.5V143c0,13.8,0.3,13.8,15.2,14.9V160.9z M1359.1,105.6
		c18.4,0,28.3-7.7,28.3-27.5c0-15.7-7.2-32-24.2-32c-9.8,0-10.1,0.6-10.1,13.3v46.2H1359.1z"/>
	<path class="st0" d="M1446.3,160.9h-41.6v-3c13-1,13.4-1.3,13.4-18.1V57.4c0-10.4-3.8-11.5-15-11.5v-3c12.5,0,19.8-3.7,28.5-11.2
		l1.3,0.8v107.4c0,16.8,2.1,17,13.4,18.1V160.9z"/>
	<path class="st0" d="M1490.9,160.9v-9.3c-7,5.4-15.4,10.9-24.3,10.9c-12.3,0-17-9.8-17-17.9c0-9.8,6.2-14.6,23.5-20.3l17.8-5.9
		v-17.3c0-16.5-3.7-23.7-12.5-23.7c-16,0-3.8,21.9-18.2,21.9c-6.1,0-8.2-3.7-8.2-7c0-9.4,17.3-19.4,32.3-19.4
		c15,0,21.3,8.5,21.3,23.8v43c0,16.8,0.6,17,12,18.1v3H1490.9z M1490.9,139.8V124l-12,3.8c-11,3.7-14.2,8.6-14.2,15
		c0,5.6,2.9,11.2,9.6,11.2C1480.2,154,1489.6,150.2,1490.9,139.8z"/>
	<path class="st0" d="M1523.9,181.9c0-3.5,1.4-7.8,6.9-7.8c7.7,0,5.8,8.3,12.2,8.3c5.8,0,9.9-6.7,15.2-21.6l-27.5-70.2
		c-4-10.1-5.4-10.4-11.8-11.4v-3c5.6,0.3,11.5,0.6,17.8,0.6s12.6-0.3,18.9-0.6v3c-7,0.6-10.1,1.1-10.1,4.6c0,1.9,1,4.6,2.4,9
		l17,48.2l13.8-42.1c2.2-7,3.7-11.5,3.7-14.2c0-4.2-3-4.8-10.2-5.4v-3c4.8,0.3,9.4,0.6,13.9,0.6c4.6,0,9-0.3,12.8-0.6v3
		c-7,1.1-7.8,1.8-11.7,12.5l-22.2,63.2c-11.5,32.6-20.3,36.5-28.6,36.5C1528.7,191.3,1523.9,188.3,1523.9,181.9z"/>
	<path class="st0" d="M1636.7,191.3c-19.5,0-36-8.6-36-20.6c0-4.3,2.1-8,7.7-11.4l10.1-6.2c-6.2-2.7-10.1-6.2-10.1-11
		c0-6.9,8.2-11.7,15.2-15.2c-12-3.2-18.2-12-18.2-24.8c0-17.6,12.3-29.1,31.4-29.1h2.4l33.4,0.8v3l-16,1.4c6.6,4.5,9.9,11.7,9.9,21
		c0,17.6-12.6,29.1-31.5,29.1c-7.4,0-12.8,1.4-12.8,6.6c0,3.5,2.6,5.6,8.6,5.6h17.6c16.5,0,24.8,6.9,24.8,18.6
		C1673.1,173.7,1661,191.3,1636.7,191.3z M1661.6,167.2c0-6.9-5-12.2-15.8-12.2h-22.7c-5.1,1.6-8.8,7-8.8,13.9
		c0,10.1,8.3,18.4,22.6,18.4C1652.8,187.3,1661.6,176.4,1661.6,167.2z M1650.7,103.8c0-13.6-4.8-26.7-16.6-26.7
		c-8,0-12.8,5.9-12.8,20.3c0,13.8,3,26.7,15.2,26.7C1644.8,124.1,1650.7,118.2,1650.7,103.8z"/>
	<path class="st0" d="M1722.6,160.9h-45v-3c13-1,13.4-1.3,13.4-18.1V98.7c0-10.4-3.8-11.5-15-11.5v-3c12.5,0,19.8-3.7,26.9-11.2
		l2.9,0.8v13.8c8-10.6,14.6-14.6,22.1-14.6c7,0,12,3.4,12,8.8c0,4.3-3,8.5-7.8,8.5c-6.7,0-6.4-8.3-12.3-8.3
		c-7,0-13.9,10.1-13.9,31.4v26.6c0,16.8,0.6,17,16.8,18.1V160.9z"/>
	<path class="st0" d="M1817.6,115.5c0,28.3-14.9,47-37.3,47c-23.2,0-35.2-16.2-35.2-42.4c0-28.5,14.6-47.2,37.3-47.2
		C1805.1,72.9,1817.6,89.1,1817.6,115.5z M1801.3,123.3c0-23.7-6.4-46.2-22.1-46.2c-10.7,0-17.3,10.4-17.3,34.7s6.1,46.6,21.1,46.6
		C1793.3,158.4,1801.3,148,1801.3,123.3z"/>
	<path class="st0" d="M1884.3,160.9v-12.3c-13.6,9.9-19,13.9-28,13.9c-13.1,0-18.7-8.8-18.7-20.6V98.7c0-10.4-3.8-11.5-15-11.5v-3
		c12.5,0,19.8-3.7,28.5-11.2l1.3,0.8v60.6c0,14.4,7.4,19.2,14.2,19.2c8.3,0,17.8-8.6,17.8-15.5V98.7c0-10.4-3.8-11.5-15-11.5v-3
		c12.5,0,19.8-3.7,28.5-11.2l1.3,0.8v66.1c0,16.8,0.6,17,13.6,18.1v3H1884.3z"/>
	<path class="st0" d="M1955.2,160.9h-40.2v-3c13-1,13.4-1.3,13.4-18.1V98.7c0-10.4-3.8-11.5-15-11.5v-3c12.5,0,19.8-3.7,28.5-11.2
		l1.3,0.8v13.1c13.6-9.9,19-13.9,28-13.9c13.1,0,18.7,8.8,18.7,27v39.8c0,16.8,0.6,17,13.6,18.1v3h-40.2v-3
		c11.4-1,11.8-1.3,11.8-18.1v-32.3c0-20.8-7.4-25.6-14.2-25.6c-8.3,0-17.8,8.6-17.8,23.5v34.4c0,16.8,0.6,17,12,18.1V160.9z"/>
	<path class="st0" d="M2062.9,160.9V146c-7.2,10.2-14.9,16.5-25,16.5c-16.3,0-29-16-29-42.6c0-29.3,17.4-47,36.6-47
		c6.7,0,13.3,2.1,17.3,4.5v-20c0-10.4-3.8-11.5-15-11.5v-3c12.5,0,19.8-3.7,28.5-11.2l1.3,0.8v107.4c0,16.8,0.6,17,12,18.1v3H2062.9
		z M2062.9,132.3V100c0-16.3-9.9-21.9-18.1-21.9c-12.3,0-20,12.6-20,40c0,24.6,7,37.1,17.9,37.1
		C2051.2,155.2,2059.4,147.6,2062.9,132.3z"/>
</g>
<g>
	<path class="st0" d="M69.8,258.1H52.4v-4.2h39.5v4.2H74.7v44.8h-4.9V258.1z"/>
	<path class="st0" d="M91.9,277.2c1.2-8.3,6.4-13.2,15.6-13.2c9.8,0,14.5,5.8,14.5,14.7V294c0,4.2,0.4,6.9,1.4,8.9h-5
		c-0.9-1.8-1.2-4.7-1.2-7.3c-3.2,5.7-8.9,8.1-13.8,8.1c-7.8,0-13-3.7-13-10.8c0-5.2,2.8-8.6,8.3-10.4c5.3-1.7,10.6-2.2,18.4-2.2
		v-1.3c0-7-3.1-10.9-10.2-10.9c-6.3,0-9.6,3.5-10.5,9.1H91.9z M104,299.7c7.5,0,13.3-6.2,13.3-13.2v-2.7c-18.1,0.1-22,3.8-22,9
		C95.3,297.1,98.7,299.7,104,299.7z"/>
	<path class="st0" d="M132.8,251.1h4.7v30.3l18.4-16.6h5.8l-19.1,17l19.9,21.1h-6L137.4,283v19.9h-4.7V251.1z"/>
	<path class="st0" d="M180.9,303.7c-10.8,0-17.2-7.4-17.2-19.8c0-12.9,6.5-19.9,16.8-19.9c10.5,0,16.8,7.3,16.8,19.3v1.3h-28.9
		c0.2,9.6,4.8,15,12.5,15c6,0,10.3-3.1,11.8-9.1h4.8C195.4,299.4,189.2,303.7,180.9,303.7z M168.5,281h23.9c-0.7-8.2-5-13-12-13
		C173.4,268.1,169.3,272.6,168.5,281z"/>
	<path class="st0" d="M218.3,283.9c0-12.9,6.5-19.9,17-19.9c10.7,0,16.9,7.5,16.9,19.9c0,12.8-6.5,19.8-16.9,19.8
		C224.6,303.7,218.3,296.3,218.3,283.9z M247.5,283.9c0-10-4.5-15.8-12.2-15.8c-7.9,0-12.2,5.6-12.2,15.8c0,10,4.5,15.8,12.2,15.8
		C243.1,299.7,247.5,294,247.5,283.9z"/>
	<path class="st0" d="M260.7,264.8h4.7v6.4c2.6-4.7,7-7.2,12.4-7.2c8.1,0,12.7,4.8,12.7,13.4v25.5h-4.6v-24.5
		c0-6.2-2.9-10.4-9.3-10.4c-7.1,0-11.2,6.4-11.2,12.2v22.8h-4.7V264.8z"/>
	<path class="st0" d="M341.2,277.7c-1.2-6.3-5.5-9.6-11.2-9.6c-7.8,0-12,5.6-12,15.8c0,10,4.5,15.8,12.2,15.8
		c5.8,0,9.9-3.1,11.2-9.4h4.7c-1.8,9.4-7.9,13.4-16.1,13.4c-10.6,0-16.8-7.5-16.8-19.8c0-12.9,6.4-19.9,16.8-19.9
		c8.3,0,14.5,4.8,15.8,13.7H341.2z"/>
	<path class="st0" d="M354.4,251.1h4.7v20.2c2.6-4.7,7-7.2,12.4-7.2c8.1,0,12.7,4.8,12.7,13.4v25.5h-4.6v-24.5
		c0-6.2-2.9-10.4-9.3-10.4c-7.1,0-11.2,6.4-11.2,12.2v22.8h-4.7V251.1z"/>
	<path class="st0" d="M394.1,277.2c1.2-8.3,6.4-13.2,15.6-13.2c9.8,0,14.5,5.8,14.5,14.7V294c0,4.2,0.4,6.9,1.4,8.9h-5
		c-0.9-1.8-1.2-4.7-1.2-7.3c-3.2,5.7-8.9,8.1-13.8,8.1c-7.8,0-13-3.7-13-10.8c0-5.2,2.8-8.6,8.3-10.4c5.3-1.7,10.6-2.2,18.4-2.2
		v-1.3c0-7-3.1-10.9-10.2-10.9c-6.3,0-9.6,3.5-10.5,9.1H394.1z M406.2,299.7c7.5,0,13.3-6.2,13.3-13.2v-2.7c-18.1,0.1-22,3.8-22,9
		C397.6,297.1,401,299.7,406.2,299.7z"/>
	<path class="st0" d="M435,251.1h4.7v51.8H435V251.1z"/>
	<path class="st0" d="M450.3,251.1h4.7v51.8h-4.7V251.1z"/>
	<path class="st0" d="M480.7,303.7c-10.8,0-17.2-7.4-17.2-19.8c0-12.9,6.5-19.9,16.8-19.9c10.5,0,16.8,7.3,16.8,19.3v1.3h-28.9
		c0.2,9.6,4.8,15,12.5,15c6,0,10.3-3.1,11.8-9.1h4.8C495.2,299.4,489,303.7,480.7,303.7z M468.4,281h23.9c-0.7-8.2-5-13-12-13
		C473.3,268.1,469.1,272.6,468.4,281z"/>
	<path class="st0" d="M505.9,264.8h4.7v6.4c2.6-4.7,7-7.2,12.4-7.2c8.1,0,12.7,4.8,12.7,13.4v25.5H531v-24.5
		c0-6.2-2.9-10.4-9.3-10.4c-7.1,0-11.2,6.4-11.2,12.2v22.8h-4.7V264.8z"/>
	<path class="st0" d="M544.1,283.7c0-12.7,5.8-19.7,15.3-19.7c5.6,0,9.6,2.2,12.1,6.5v-5.7h4.7v39.5c0,10.7-6.5,15.3-15,15.3
		c-8.7,0-14.7-4.3-16.1-12.7h4.7c0.9,5.8,5.2,8.9,11.4,8.9c6.3,0,10.3-3.5,10.3-11.3v-7.8c-2.6,4.4-6.8,6.7-12.1,6.7
		C549.8,303.3,544.1,295.9,544.1,283.7z M571.5,283.6c0-9.8-4.1-15.6-11.3-15.6c-7.3,0-11.3,5.5-11.3,15.6c0,9.9,4.1,15.6,11.3,15.6
		C567.5,299.2,571.5,293.7,571.5,283.6z"/>
	<path class="st0" d="M601.9,303.7c-10.8,0-17.2-7.4-17.2-19.8c0-12.9,6.5-19.9,16.8-19.9c10.5,0,16.8,7.3,16.8,19.3v1.3h-28.9
		c0.2,9.6,4.8,15,12.5,15c6,0,10.3-3.1,11.8-9.1h4.8C616.5,299.4,610.3,303.7,601.9,303.7z M589.6,281h23.9c-0.7-8.2-5-13-12-13
		C594.5,268.1,590.3,272.6,589.6,281z"/>
	<path class="st0" d="M655.1,292.2c0,7.1-6.1,11.4-14.6,11.4c-8.9,0-14.9-4.3-16.3-13.2h4.7c0.9,6.1,5.3,9.4,11.8,9.4
		c6.4,0,9.8-3,9.8-7.3c0-11.9-24.9-2.1-24.9-17.8c0-5.8,4.3-10.8,13.3-10.8c7.9,0,13.8,3.9,14.9,13.2h-4.7
		c-0.9-6.7-4.7-9.4-10.5-9.4c-5.5,0-8.6,2.8-8.6,6.6C630,286.3,655.1,276.4,655.1,292.2z"/>
	<path class="st0" d="M701.4,272.7l-0.9-3.9l-0.9,3.9l-9.2,30.2h-5.7l-11.9-38.1h5l9,31.1l0.9,3.5l0.9-3.5l9.6-31.1h5l9.6,31.1
		l0.8,3.3l0.8-3.3l9-31.1h4.8l-11.9,38.1h-5.8L701.4,272.7z"/>
	<path class="st0" d="M734.5,251.1h4.7v20.2c2.6-4.7,7-7.2,12.4-7.2c8.1,0,12.7,4.8,12.7,13.4v25.5h-4.6v-24.5
		c0-6.2-2.9-10.4-9.3-10.4c-7.1,0-11.2,6.4-11.2,12.2v22.8h-4.7V251.1z"/>
	<path class="st0" d="M789.9,303.7c-10.8,0-17.2-7.4-17.2-19.8c0-12.9,6.5-19.9,16.8-19.9c10.5,0,16.8,7.3,16.8,19.3v1.3h-28.9
		c0.2,9.6,4.8,15,12.5,15c6,0,10.3-3.1,11.8-9.1h4.8C804.5,299.4,798.3,303.7,789.9,303.7z M777.6,281h23.9c-0.7-8.2-5-13-12-13
		C782.5,268.1,778.3,272.6,777.6,281z"/>
	<path class="st0" d="M815.1,264.8h4.7v7c2.5-5.2,6.8-7.8,11.7-7.8c1.4,0,2.7,0.3,3.5,0.8v4.2c-1-0.4-2.4-0.6-3.7-0.6
		c-7.8,0-11.4,5.8-11.4,12.5v21.9h-4.7V264.8z"/>
	<path class="st0" d="M855.3,303.7c-10.8,0-17.2-7.4-17.2-19.8c0-12.9,6.5-19.9,16.8-19.9c10.5,0,16.8,7.3,16.8,19.3v1.3h-28.9
		c0.2,9.6,4.8,15,12.5,15c6,0,10.3-3.1,11.8-9.1h4.8C869.8,299.4,863.6,303.7,855.3,303.7z M843,281h23.9c-0.7-8.2-5-13-12-13
		C847.9,268.1,843.7,272.6,843,281z"/>
	<path class="st0" d="M892.4,319v-3.6h1.7c4.8,0,6-0.8,9.9-9.9l1.5-3.6l-15.6-37.1h5.1l11,26.9l1.9,5.3l1.9-5.3l10.7-26.9h4.8
		L907.6,308c-3.8,9.3-5.9,11.4-12.2,11.4C894.3,319.4,893.1,319.1,892.4,319z"/>
	<path class="st0" d="M928.6,283.9c0-12.9,6.5-19.9,17-19.9c10.7,0,16.9,7.5,16.9,19.9c0,12.8-6.5,19.8-16.9,19.8
		C934.8,303.7,928.6,296.3,928.6,283.9z M957.7,283.9c0-10-4.5-15.8-12.2-15.8c-7.9,0-12.2,5.6-12.2,15.8c0,10,4.5,15.8,12.2,15.8
		C953.4,299.7,957.7,294,957.7,283.9z"/>
	<path class="st0" d="M995.7,264.8h4.7v38.1h-4.7v-6.5c-2.5,4.8-6.9,7.3-12.2,7.3c-7.9,0-12.5-4.8-12.5-13.4v-25.5h4.7v24.6
		c0,6.1,2.7,10.3,9.1,10.3c6.9,0,10.9-6.3,10.9-12.1V264.8z"/>
	<path class="st0" d="M1010.2,253.9h6v3.8c0,4.9-0.9,7.8-2.6,11h-2.7c1.2-3.4,1.9-5.5,1.9-8.9h-2.6V253.9z"/>
	<path class="st0" d="M1026.2,264.8h4.7v7c2.5-5.2,6.8-7.8,11.7-7.8c1.4,0,2.7,0.3,3.5,0.8v4.2c-1-0.4-2.4-0.6-3.7-0.6
		c-7.8,0-11.4,5.8-11.4,12.5v21.9h-4.7V264.8z"/>
	<path class="st0" d="M1066.4,303.7c-10.8,0-17.2-7.4-17.2-19.8c0-12.9,6.5-19.9,16.8-19.9c10.5,0,16.8,7.3,16.8,19.3v1.3h-28.9
		c0.2,9.6,4.8,15,12.5,15c6,0,10.3-3.1,11.8-9.1h4.8C1080.9,299.4,1074.7,303.7,1066.4,303.7z M1054.1,281h23.9c-0.7-8.2-5-13-12-13
		C1059,268.1,1054.8,272.6,1054.1,281z"/>
	<path class="st0" d="M1106.6,268.6h-5.8v-3.7h5.8V256h4.7v8.8h8.5v3.7h-8.5v23.9c0,5,1.4,7.3,7.3,7.3h1.2v3.4
		c-0.6,0.2-1.9,0.4-3.2,0.4c-6.9,0-9.9-3.4-9.9-11V268.6z"/>
	<path class="st0" d="M1125.9,251.1h4.7v20.2c2.6-4.7,7-7.2,12.4-7.2c8.1,0,12.7,4.8,12.7,13.4v25.5h-4.6v-24.5
		c0-6.2-2.9-10.4-9.3-10.4c-7.1,0-11.2,6.4-11.2,12.2v22.8h-4.7V251.1z"/>
	<path class="st0" d="M1181.4,303.7c-10.8,0-17.2-7.4-17.2-19.8c0-12.9,6.5-19.9,16.8-19.9c10.5,0,16.8,7.3,16.8,19.3v1.3h-28.9
		c0.2,9.6,4.8,15,12.5,15c6,0,10.3-3.1,11.8-9.1h4.8C1195.9,299.4,1189.7,303.7,1181.4,303.7z M1169.1,281h23.9c-0.7-8.2-5-13-12-13
		C1174,268.1,1169.8,272.6,1169.1,281z"/>
	<path class="st0" d="M1220.9,251.1h4.7v51.8h-4.7V251.1z"/>
	<path class="st0" d="M1251.3,303.7c-10.8,0-17.2-7.4-17.2-19.8c0-12.9,6.5-19.9,16.8-19.9c10.5,0,16.8,7.3,16.8,19.3v1.3h-28.9
		c0.2,9.6,4.8,15,12.5,15c6,0,10.3-3.1,11.8-9.1h4.8C1265.8,299.4,1259.6,303.7,1251.3,303.7z M1239,281h23.9c-0.7-8.2-5-13-12-13
		C1243.9,268.1,1239.7,272.6,1239,281z"/>
	<path class="st0" d="M1275.9,277.2c1.2-8.3,6.4-13.2,15.6-13.2c9.8,0,14.5,5.8,14.5,14.7V294c0,4.2,0.4,6.9,1.4,8.9h-5
		c-0.9-1.8-1.2-4.7-1.2-7.3c-3.2,5.7-8.9,8.1-13.8,8.1c-7.8,0-13-3.7-13-10.8c0-5.2,2.8-8.6,8.3-10.4c5.3-1.7,10.6-2.2,18.4-2.2
		v-1.3c0-7-3.1-10.9-10.2-10.9c-6.3,0-9.6,3.5-10.5,9.1H1275.9z M1288,299.7c7.5,0,13.3-6.2,13.3-13.2v-2.7c-18.1,0.1-22,3.8-22,9
		C1279.4,297.1,1282.7,299.7,1288,299.7z"/>
	<path class="st0" d="M1314.7,283.9c0-12.9,6-19.9,15.8-19.9c5.1,0,9.1,2.3,11.6,6.7v-19.7h4.7v51.8h-4.7v-6.1
		c-2.5,4.4-6.5,6.9-11.6,6.9C1320.6,303.7,1314.7,296.3,1314.7,283.9z M1342.1,283.9c0-10-4.1-15.8-11.3-15.8
		c-7.3,0-11.3,5.6-11.3,15.8c0,10,4.2,15.8,11.3,15.8C1338.1,299.7,1342.1,294,1342.1,283.9z"/>
	<path class="st0" d="M1371.7,318.7v-53.9h4.6v6.2c2.5-4.5,6.6-7,11.7-7c9.9,0,15.8,7.4,15.8,19.7c0,13-6,19.9-15.8,19.9
		c-5.2,0-9.2-2.4-11.7-6.8v21.8H1371.7z M1376.3,283.8c0,10,4.2,15.8,11.4,15.8c7.3,0,11.2-5.7,11.2-15.9c0-9.9-4.1-15.7-11.2-15.7
		C1380.4,268.1,1376.3,273.6,1376.3,283.8z"/>
	<path class="st0" d="M1412.3,264.8h4.7v7c2.5-5.2,6.8-7.8,11.7-7.8c1.4,0,2.7,0.3,3.5,0.8v4.2c-1-0.4-2.4-0.6-3.7-0.6
		c-7.8,0-11.4,5.8-11.4,12.5v21.9h-4.7V264.8z"/>
	<path class="st0" d="M1435.2,283.9c0-12.9,6.5-19.9,17-19.9c10.7,0,16.9,7.5,16.9,19.9c0,12.8-6.5,19.8-16.9,19.8
		C1441.5,303.7,1435.2,296.3,1435.2,283.9z M1464.4,283.9c0-10-4.5-15.8-12.2-15.8c-7.9,0-12.2,5.6-12.2,15.8
		c0,10,4.5,15.8,12.2,15.8C1460.1,299.7,1464.4,294,1464.4,283.9z"/>
	<path class="st0" d="M1475.6,283.9c0-12.9,6-19.9,15.8-19.9c5.1,0,9.1,2.3,11.6,6.7v-19.7h4.7v51.8h-4.7v-6.1
		c-2.5,4.4-6.5,6.9-11.6,6.9C1481.5,303.7,1475.6,296.3,1475.6,283.9z M1502.9,283.9c0-10-4.1-15.8-11.3-15.8
		c-7.3,0-11.3,5.6-11.3,15.8c0,10,4.2,15.8,11.3,15.8C1499,299.7,1502.9,294,1502.9,283.9z"/>
	<path class="st0" d="M1542.9,264.8h4.7v38.1h-4.7v-6.5c-2.5,4.8-6.9,7.3-12.2,7.3c-7.9,0-12.5-4.8-12.5-13.4v-25.5h4.7v24.6
		c0,6.1,2.7,10.3,9.1,10.3c6.9,0,10.9-6.3,10.9-12.1V264.8z"/>
	<path class="st0" d="M1584,277.7c-1.2-6.3-5.5-9.6-11.2-9.6c-7.8,0-12,5.6-12,15.8c0,10,4.5,15.8,12.2,15.8c5.8,0,9.9-3.1,11.2-9.4
		h4.7c-1.8,9.4-7.9,13.4-16.1,13.4c-10.6,0-16.8-7.5-16.8-19.8c0-12.9,6.4-19.9,16.8-19.9c8.3,0,14.5,4.8,15.8,13.7H1584z"/>
	<path class="st0" d="M1597.9,268.6h-5.8v-3.7h5.8V256h4.7v8.8h8.5v3.7h-8.5v23.9c0,5,1.4,7.3,7.3,7.3h1.2v3.4
		c-0.6,0.2-1.9,0.4-3.2,0.4c-6.9,0-9.9-3.4-9.9-11V268.6z"/>
	<path class="st0" d="M1631.5,264.8h4.7v6.1c2.4-4.5,6.4-6.9,11.4-6.9c5.5,0,9.3,2.7,10.9,7.6c2.4-4.9,6.6-7.6,11.9-7.6
		c7.6,0,12,4.8,12,13.4v25.5h-4.7v-24.5c0-6.2-2.5-10.4-8.3-10.4c-6.3,0-10.1,6.4-10.1,12.2v22.8h-4.7v-24.5
		c0-6.2-2.5-10.4-8.3-10.4c-6.3,0-10.1,6.4-10.1,12.2v22.8h-4.7V264.8z"/>
	<path class="st0" d="M1692.3,277.2c1.2-8.3,6.4-13.2,15.6-13.2c9.8,0,14.5,5.8,14.5,14.7V294c0,4.2,0.4,6.9,1.4,8.9h-5
		c-0.9-1.8-1.2-4.7-1.2-7.3c-3.2,5.7-8.9,8.1-13.8,8.1c-7.8,0-13-3.7-13-10.8c0-5.2,2.8-8.6,8.3-10.4c5.3-1.7,10.6-2.2,18.4-2.2
		v-1.3c0-7-3.1-10.9-10.2-10.9c-6.3,0-9.6,3.5-10.5,9.1H1692.3z M1704.4,299.7c7.5,0,13.3-6.2,13.3-13.2v-2.7c-18.1,0.1-22,3.8-22,9
		C1695.7,297.1,1699.1,299.7,1704.4,299.7z"/>
	<path class="st0" d="M1733.2,264.8h4.7v7c2.5-5.2,6.8-7.8,11.7-7.8c1.4,0,2.7,0.3,3.5,0.8v4.2c-1-0.4-2.4-0.6-3.7-0.6
		c-7.8,0-11.4,5.8-11.4,12.5v21.9h-4.7V264.8z"/>
	<path class="st0" d="M1759,251.1h4.7v30.3l18.4-16.6h5.8l-19.1,17l19.9,21.1h-6l-18.9-19.9v19.9h-4.7V251.1z"/>
	<path class="st0" d="M1807.1,303.7c-10.8,0-17.2-7.4-17.2-19.8c0-12.9,6.5-19.9,16.8-19.9c10.5,0,16.8,7.3,16.8,19.3v1.3h-28.9
		c0.2,9.6,4.8,15,12.5,15c6,0,10.3-3.1,11.8-9.1h4.8C1821.6,299.4,1815.4,303.7,1807.1,303.7z M1794.7,281h23.9c-0.7-8.2-5-13-12-13
		C1799.6,268.1,1795.5,272.6,1794.7,281z"/>
	<path class="st0" d="M1833,268.6h-5.8v-3.7h5.8V256h4.7v8.8h8.5v3.7h-8.5v23.9c0,5,1.4,7.3,7.3,7.3h1.2v3.4
		c-0.6,0.2-1.9,0.4-3.2,0.4c-6.9,0-9.9-3.4-9.9-11V268.6z"/>
	<path class="st0" d="M1867.4,303.7c-10.8,0-17.2-7.4-17.2-19.8c0-12.9,6.5-19.9,16.8-19.9c10.5,0,16.8,7.3,16.8,19.3v1.3h-28.9
		c0.2,9.6,4.8,15,12.5,15c6,0,10.3-3.1,11.8-9.1h4.8C1881.9,299.4,1875.7,303.7,1867.4,303.7z M1855.1,281h23.9c-0.7-8.2-5-13-12-13
		C1860,268.1,1855.8,272.6,1855.1,281z"/>
	<path class="st0" d="M1892.6,264.8h4.7v7c2.5-5.2,6.8-7.8,11.7-7.8c1.4,0,2.7,0.3,3.5,0.8v4.2c-1-0.4-2.4-0.6-3.7-0.6
		c-7.8,0-11.4,5.8-11.4,12.5v21.9h-4.7V264.8z"/>
</g>
</svg>
